<?xml version="1.0" standalone="no"?>
<!DOCTYPE svg PUBLIC "-//W3C//DTD SVG 20010904//EN"
 "http://www.w3.org/TR/2001/REC-SVG-20010904/DTD/svg10.dtd">
<svg version="1.0" xmlns="http://www.w3.org/2000/svg"
 width="512.000000pt" height="512.000000pt" viewBox="0 0 512.000000 512.000000"
 preserveAspectRatio="xMidYMid meet">
<metadata>
Created by potrace 1.11, written by Peter Selinger 2001-2013
</metadata>
<g transform="translate(0.000000,512.000000) scale(0.100000,-0.100000)"
fill="#000000" stroke="none">
<path d="M1765 2708 l0 -1683 233 -3 232 -2 0 755 0 755 660 0 660 0 0 195 0
195 -660 0 -660 0 0 540 0 540 715 0 715 0 0 195 0 195 -948 0 -947 0 0 -1682z"/>
<path d="M3577 1390 c-9 -4 -12 -51 -12 -187 l0 -183 165 0 165 0 0 185 c0
102 -2 185 -5 186 -18 4 -303 3 -313 -1z"/>
</g>
</svg>
